<?xml version="1.0" encoding="iso-8859-1"?>
<!-- Generator: Adobe Illustrator 18.0.0, SVG Export Plug-In . SVG Version: 6.00 Build 0)  -->
<!DOCTYPE svg PUBLIC "-//W3C//DTD SVG 1.1//EN" "http://www.w3.org/Graphics/SVG/1.1/DTD/svg11.dtd">
<!-- License: CC0. Made by SVG Repo: https://www.svgrepo.com/svg/126157/wave -->
<svg version="1.1" id="Capa_1" xmlns="http://www.w3.org/2000/svg" xmlns:xlink="http://www.w3.org/1999/xlink" x="0px" y="0px"
	 viewBox="0 0 265.119 265.119" style="enable-background:new 0 0 265.119 265.119;" xml:space="preserve">
<path d="M262.541,178.343c-44.62,3.07-51.496-33.704-72.595-61.061c-14.337-18.592-33.458-33.667-54.987-43.076
	C94.213,56.397,32.49,55.614,0.683,91.034c-1.35,1.504-0.509,3.35,0.885,3.94c0.158,1.92,3.269,2.319,3.705,0.285
	c0.23-1.076,0.706-2.001,1.332-2.822c0.997-0.84,1.982-1.713,2.998-2.506c6.505-3.546,18.243-2.484,22.749-0.219
	c11.314,5.688,10.642,18.19,3.117,26.69c-1.33,1.502-0.399,3.896,1.178,4.412c-0.203,0.268-0.448,0.503-0.632,0.787
	c-0.393,0.609,0.275,1.616,1.009,1.313c2.825-1.164,6.302-2.794,9.391-2.804c5.87-0.02,10.687,6.643,5.417,11.015
	c-0.368,0.305-0.582,0.644-0.731,0.993c-0.832,0.258-1.665,0.519-2.428,0.863c-2.827,1.274-0.804,5.732,2.079,4.931
	c14.903-4.141,21.596,12.966,5.874,18.769c-2.84,1.049-2.742,6.153,0.778,5.747c15.297-1.769,16.428,9.721,13.337,19.942
	c-1.953,1.806-3.907,3.612-5.86,5.417c-4.722,2.679-11.998,2.487-17.359,2.527c-10.455,0.078-20.154-2.637-29.886-6.155
	c-1.52-0.549-2.702,0.464-3.103,1.74c-1.365,0.358-2.149,2.369-0.573,3.038c19.404,8.232,47.597,22.628,67.155,7.064
	c7.488-5.958,10.146-14.82,7.04-23.848c-1.75-5.089-5.401-11.908-10.504-14.959c5.749-4.933,7.945-13.212,4.812-20.399
	c-3.076-7.054-10.375-10.683-17.737-10.876c1.192-4.046-0.807-8.492-4.045-11.261c-1.505-1.289-3.413-2.267-5.458-2.897
	c3.436-6.732,2.271-17.583-0.644-23.027c-3.775-7.047-10.709-11.97-18.285-13.614c56.946-21.026,128.448,11.17,158.539,62.51
	c20.163,34.402,23.023,54.431,68.408,45.888C266.141,182.973,265.506,178.139,262.541,178.343z"/>
</svg>
